<svg xmlns="http://www.w3.org/2000/svg" version="1.1" xmlns:xlink="http://www.w3.org/1999/xlink" viewBox="0 0 200 200"><rect width="200" height="200" fill="url('#gradient')"></rect><defs><linearGradient id="gradient" gradientTransform="rotate(0 0.5 0.5)"><stop offset="0%" stop-color="#a7d0cb"></stop><stop offset="100%" stop-color="#deefe6"></stop></linearGradient></defs><g><g fill="#191e27" transform="matrix(6.0083280757097794,0,0,6.0083280757097794,0.5594380019365417,142.71858828698046)" stroke="#243a54" stroke-width="0.65"><path d="M4.50-14.22L4.50-2.64L10.47-2.64L10.47 0L1.07 0L1.07-14.22L4.50-14.22ZM21.07-14.22L21.07-11.57L16.81-11.57L16.81 0L13.38 0L13.38-11.57L9.19-11.57L9.19-14.22L21.07-14.22ZM31.47-8.30L31.47-5.66L25.95-5.66L25.95 0L22.52 0L22.52-14.22L32.03-14.22L32.03-11.57L25.95-11.57L25.95-8.30L31.47-8.30Z"></path></g></g></svg>